<?xml version="1.0" encoding="utf-8"?>
<!-- Generator: Adobe Illustrator 22.1.0, SVG Export Plug-In . SVG Version: 6.00 Build 0)  -->
<svg version="1.1" id="Layer_1" xmlns="http://www.w3.org/2000/svg" xmlns:xlink="http://www.w3.org/1999/xlink" x="0px" y="0px"
	 viewBox="0 0 50 30" style="enable-background:new 0 0 50 30;" xml:space="preserve">
<style type="text/css">
	.st0{fill:#000066;}
	.st1{fill:#FFFFFF;}
	.st2{fill:#C00000;}
</style>
<rect class="st0" width="50" height="30"/>
<polygon class="st1" points="50,27 50,30 45,30 0,3 0,0 4.6,0 "/>
<polygon class="st2" points="50,28 50,30 30.3,18.1 31.1,16.6 "/>
<polygon class="st2" points="18.5,11.2 17.7,12.6 0,2 0,0 "/>
<polygon class="st1" points="5,30 0,30 0,27.3 45.3,0 50,0 50,3 "/>
<polygon class="st2" points="3.3,30 0,30 19.7,18 20.7,19.6 "/>
<rect x="24" y="-7" transform="matrix(-1.836970e-16 1 -1 -1.836970e-16 43 -7)" class="st1" width="2" height="50"/>
<polygon class="st2" points="29.3,12.4 28.3,10.8 46.5,0 50,0 "/>
<rect x="24" y="-13" transform="matrix(-1.836970e-16 1 -1 -1.836970e-16 37 -13)" class="st1" width="2" height="50"/>
<rect x="22" class="st2" width="5" height="30"/>
<rect x="27" class="st1" width="2" height="30"/>
<rect x="20" class="st1" width="2" height="30"/>
<rect x="22.5" y="-10" transform="matrix(-1.836970e-16 1 -1 -1.836970e-16 40 -10)" class="st2" width="5" height="50"/>
</svg>
